<svg width="80" height="80" viewBox="0 0 80 80" fill="none" xmlns="http://www.w3.org/2000/svg">
<circle cx="40" cy="40" r="40" transform="rotate(-180 40 40)" fill="#2A2C34"/>
<path opacity="0.5" fill-rule="evenodd" clip-rule="evenodd" d="M28.2798 41.4604L47.3738 41.4604L39.0198 49.8124C38.6932 50.1234 38.5083 50.5548 38.5083 51.0059C38.5083 51.4569 38.6932 51.8883 39.0198 52.1994C39.3309 52.526 39.7623 52.7109 40.2133 52.7109C40.6644 52.7109 41.0958 52.526 41.4068 52.1994L52.4888 41.1194C53.1723 40.3385 53.1723 39.1723 52.4888 38.3914L41.4068 27.3124C41.0958 26.9857 40.6644 26.8008 40.2133 26.8008C39.7623 26.8008 39.3309 26.9857 39.0198 27.3124C38.6932 27.6234 38.5083 28.0548 38.5083 28.5059C38.5083 28.9569 38.6932 29.3883 39.0198 29.6994L47.3738 38.0534L28.2798 38.0534C27.8215 38.0273 27.3737 38.198 27.0491 38.5226C26.7244 38.8473 26.5537 39.295 26.5798 39.7534C26.5517 40.2129 26.7214 40.6626 27.0463 40.9888C27.3712 41.315 27.8202 41.4867 28.2798 41.4604Z" fill="white"/>
</svg>
